<svg width="12" height="12" viewBox="0 0 12 12" fill="none" xmlns="http://www.w3.org/2000/svg">
<path d="M10.1539 5.07691C10.1539 8.30768 6.00004 11.0769 6.00004 11.0769C6.00004 11.0769 1.84619 8.30768 1.84619 5.07691C1.84619 3.97524 2.28383 2.9187 3.06282 2.1397C3.84182 1.3607 4.89837 0.923065 6.00004 0.923065C7.10171 0.923065 8.15825 1.3607 8.93725 2.1397C9.71625 2.9187 10.1539 3.97524 10.1539 5.07691Z" stroke="#F1F1F1" stroke-opacity="0.5" stroke-width="0.923077" stroke-linecap="round" stroke-linejoin="round"/>
<path d="M6.00009 6.46155C6.7648 6.46155 7.38471 5.84164 7.38471 5.07694C7.38471 4.31224 6.7648 3.69232 6.00009 3.69232C5.23539 3.69232 4.61548 4.31224 4.61548 5.07694C4.61548 5.84164 5.23539 6.46155 6.00009 6.46155Z" stroke="#F1F1F1" stroke-opacity="0.5" stroke-width="0.923077" stroke-linecap="round" stroke-linejoin="round"/>
</svg>
