<svg width="12" height="12" viewBox="0 0 12 12" fill="none" xmlns="http://www.w3.org/2000/svg">
<path d="M10.1539 5.07694C10.1539 8.30771 6.00004 11.0769 6.00004 11.0769C6.00004 11.0769 1.84619 8.30771 1.84619 5.07694C1.84619 3.97527 2.28383 2.91873 3.06282 2.13973C3.84182 1.36073 4.89837 0.923096 6.00004 0.923096C7.10171 0.923096 8.15825 1.36073 8.93725 2.13973C9.71625 2.91873 10.1539 3.97527 10.1539 5.07694Z" stroke="#F1F1F1" stroke-width="0.923077" stroke-linecap="round" stroke-linejoin="round"/>
<path d="M5.99997 6.46155C6.76467 6.46155 7.38459 5.84164 7.38459 5.07694C7.38459 4.31224 6.76467 3.69232 5.99997 3.69232C5.23527 3.69232 4.61536 4.31224 4.61536 5.07694C4.61536 5.84164 5.23527 6.46155 5.99997 6.46155Z" stroke="#F1F1F1" stroke-width="0.923077" stroke-linecap="round" stroke-linejoin="round"/>
</svg>
